<?xml version="1.0" encoding="UTF-8" standalone="no"?>
<!DOCTYPE svg PUBLIC "-//W3C//DTD SVG 20010904//EN"
              "http://www.w3.org/TR/2001/REC-SVG-20010904/DTD/svg10.dtd">

<svg xmlns="http://www.w3.org/2000/svg"
     width="1.70667in" height="1.70667in"
     viewBox="0 0 512 512">
  <path id="Sem nome"
        fill="none" stroke="black" stroke-width="1"
        d="M 80.00,354.67
           C 80.00,354.67 209.33,254.00 209.33,254.00
             209.33,254.00 318.67,308.00 319.33,308.00
             320.00,308.00 413.33,143.33 413.33,143.33M 74.00,343.33
           C 74.00,343.33 54.00,373.33 86.67,369.33
             119.33,365.33 98.67,346.00 98.67,346.00
             98.67,346.00 86.67,336.00 80.00,339.33M 210.67,266.00
           C 210.67,266.00 229.33,260.00 224.00,248.00
             218.67,236.00 211.33,236.67 211.33,236.67
             211.33,236.67 195.33,235.33 202.00,250.67M 314.00,299.33
           C 314.00,299.33 324.67,288.00 332.67,304.00
             340.67,320.00 333.33,316.67 326.67,318.00
             320.00,319.33 306.00,320.00 306.67,306.67M 418.00,152.00
           C 418.00,152.00 434.00,146.00 426.00,134.67
             418.00,123.33 406.67,124.67 405.33,132.67
             404.00,140.67 395.33,148.67 401.33,152.67
             407.33,156.67 420.00,151.33 420.67,151.33" />
</svg>
