<?xml version="1.0" encoding="UTF-8" standalone="no"?>
<!DOCTYPE svg PUBLIC "-//W3C//DTD SVG 20010904//EN"
              "http://www.w3.org/TR/2001/REC-SVG-20010904/DTD/svg10.dtd">

<svg xmlns="http://www.w3.org/2000/svg"
     width="1.70667in" height="1.70667in"
     viewBox="0 0 512 512">
  <path id="Sem nome"
        fill="none" stroke="black" stroke-width="1"
        d="M 260.67,417.33
           C 260.67,417.33 145.33,260.00 145.33,260.00
             145.33,260.00 96.67,184.67 144.67,115.33
             192.67,46.00 254.00,58.67 256.67,58.00
             259.33,57.33 331.33,58.67 359.33,114.00
             387.33,169.33 364.67,246.67 360.67,258.00
             356.67,269.33 271.33,405.33 260.67,418.00M 254.00,130.67
           C 254.00,130.67 310.67,124.67 310.67,173.33
             310.67,222.00 260.00,214.67 251.33,215.33
             242.67,216.00 210.00,196.00 212.00,172.67
             216.00,148.67 222.67,138.67 253.33,130.67M 195.33,373.33
           C 196.00,373.33 150.67,378.00 161.33,398.67
             172.00,419.33 182.67,434.00 215.33,440.67
             248.00,447.33 286.67,446.67 305.33,438.00
             324.00,429.33 337.33,421.33 341.33,408.67
             345.33,396.00 323.33,384.67 316.00,384.67" />
</svg>
