<?xml version="1.0" encoding="UTF-8" standalone="no"?>
<!DOCTYPE svg PUBLIC "-//W3C//DTD SVG 20010904//EN"
              "http://www.w3.org/TR/2001/REC-SVG-20010904/DTD/svg10.dtd">

<svg xmlns="http://www.w3.org/2000/svg"
     width="1.70667in" height="1.70667in"
     viewBox="0 0 512 512">
  <path id="Vetor #1"
        fill="none" stroke="black" stroke-width="1"
        d="M 84.00,221.67
           C 84.00,221.67 53.67,221.33 53.67,221.33M 80.00,120.67
           C 80.33,120.67 107.00,134.00 107.67,134.00M 155.00,42.33
           C 155.00,42.33 170.00,71.33 170.33,71.33M 256.67,13.67
           C 256.67,13.67 257.00,44.67 257.00,44.67M 360.67,39.33
           C 360.67,39.33 342.33,70.00 342.33,70.00M 432.33,118.67
           C 432.33,118.67 407.00,133.67 406.67,133.67M 459.00,221.33
           C 459.00,221.33 427.67,222.33 427.67,222.33M 429.33,324.00
           C 429.33,324.00 403.33,308.00 403.33,308.00" />
  <path id="Vetor"
        fill="none" stroke="black" stroke-width="1"
        d="M 84.00,322.67
           C 84.00,322.33 110.00,309.00 110.00,309.00" />
  <path id="Sem nome"
        fill="none" stroke="black" stroke-width="1"
        d="M 190.75,377.25
           C 190.75,377.25 327.75,377.25 327.75,377.25
             327.75,377.25 327.00,347.00 349.67,325.00
             372.33,303.00 399.00,284.00 397.00,209.33
             394.00,168.00 359.33,117.33 341.00,106.67
             322.67,96.00 282.33,73.33 231.67,84.33
             181.00,95.33 127.33,147.00 123.67,190.67
             120.00,234.33 115.33,250.67 143.00,297.00
             151.00,311.00 159.00,319.00 164.67,322.67
             170.33,326.33 190.67,349.67 189.67,359.33
             190.33,365.33 190.00,377.67 190.00,377.67M 200.00,409.75
           C 200.00,409.75 317.25,410.50 317.25,410.50
             317.25,410.50 315.75,453.00 316.00,453.00
             316.25,453.00 315.50,467.75 302.00,468.00
             288.50,468.25 216.75,469.50 217.00,469.50
             217.25,469.50 203.00,469.00 201.25,451.50
             199.50,434.00 200.00,409.75 200.00,409.75M 228.18,470.91" />
</svg>
